<?xml version="1.0" encoding="UTF-8" standalone="no"?>
<!-- Created with Inkscape (http://www.inkscape.org/) -->

<svg
   xmlns:dc="http://purl.org/dc/elements/1.1/"
   xmlns:cc="http://creativecommons.org/ns#"
   xmlns:rdf="http://www.w3.org/1999/02/22-rdf-syntax-ns#"
   xmlns:svg="http://www.w3.org/2000/svg"
   xmlns="http://www.w3.org/2000/svg"
   xmlns:xlink="http://www.w3.org/1999/xlink"
   xmlns:sodipodi="http://sodipodi.sourceforge.net/DTD/sodipodi-0.dtd"
   xmlns:inkscape="http://www.inkscape.org/namespaces/inkscape"
   width="210mm"
   height="297mm"
   viewBox="0 0 210 297"
   version="1.1"
   id="svg2827"
   inkscape:version="0.92.4 (5da689c313, 2019-01-14)"
   sodipodi:docname="Cherry Vector SVG.svg">
  <defs
     id="defs2821">
    <linearGradient
       inkscape:collect="always"
       xlink:href="#linearGradient1337"
       id="linearGradient1331"
       x1="134.52388"
       y1="194.23082"
       x2="143.64632"
       y2="194.23082"
       gradientUnits="userSpaceOnUse" />
    <linearGradient
       inkscape:collect="always"
       id="linearGradient1337">
      <stop
         style="stop-color:#626207;stop-opacity:1"
         offset="0"
         id="stop1333" />
      <stop
         style="stop-color:#5b6a07;stop-opacity:1"
         offset="1"
         id="stop1335" />
    </linearGradient>
    <inkscape:path-effect
       effect="bspline"
       id="path-effect1323"
       is_visible="true"
       weight="33.333333"
       steps="2"
       helper_size="0"
       apply_no_weight="true"
       apply_with_weight="true"
       only_selected="false" />
    <radialGradient
       inkscape:collect="always"
       xlink:href="#linearGradient1265"
       id="radialGradient1285"
       gradientUnits="userSpaceOnUse"
       gradientTransform="matrix(0.27415871,1.1945504,-0.9226119,0.21173927,267.63712,33.632292)"
       cx="111.35355"
       cy="207.18414"
       fx="111.35355"
       fy="207.18414"
       r="16.643927" />
    <linearGradient
       inkscape:collect="always"
       id="linearGradient1265">
      <stop
         style="stop-color:#db7482;stop-opacity:1"
         offset="0"
         id="stop1261" />
      <stop
         id="stop1269"
         offset="0.46337196"
         style="stop-color:#9f0140;stop-opacity:0.99215686" />
      <stop
         style="stop-color:#78013b;stop-opacity:0.98039216;"
         offset="0.77821594"
         id="stop1271" />
      <stop
         style="stop-color:#570201;stop-opacity:1"
         offset="1"
         id="stop1263" />
    </linearGradient>
    <inkscape:path-effect
       effect="bspline"
       id="path-effect1259"
       is_visible="true"
       weight="33.333333"
       steps="2"
       helper_size="0"
       apply_no_weight="true"
       apply_with_weight="true"
       only_selected="false" />
    <radialGradient
       inkscape:collect="always"
       xlink:href="#linearGradient1265"
       id="radialGradient1343"
       gradientUnits="userSpaceOnUse"
       gradientTransform="matrix(0.27415871,1.1945504,-0.9226119,0.21173927,267.63712,33.632292)"
       cx="111.35355"
       cy="207.18414"
       fx="111.35355"
       fy="207.18414"
       r="16.643927" />
    <inkscape:path-effect
       only_selected="false"
       apply_with_weight="true"
       apply_no_weight="true"
       helper_size="0"
       steps="2"
       weight="33.333333"
       is_visible="true"
       id="path-effect1341"
       effect="bspline" />
    <linearGradient
       inkscape:collect="always"
       xlink:href="#linearGradient1361"
       id="linearGradient1355"
       x1="147.33229"
       y1="184.33331"
       x2="160.98296"
       y2="183.94919"
       gradientUnits="userSpaceOnUse" />
    <linearGradient
       inkscape:collect="always"
       id="linearGradient1361">
      <stop
         style="stop-color:#7e8009;stop-opacity:1"
         offset="0"
         id="stop1357" />
      <stop
         style="stop-color:#353e04;stop-opacity:1"
         offset="1"
         id="stop1359" />
    </linearGradient>
    <inkscape:path-effect
       effect="bspline"
       id="path-effect1347"
       is_visible="true"
       weight="33.333333"
       steps="2"
       helper_size="0"
       apply_no_weight="true"
       apply_with_weight="true"
       only_selected="false" />
    <linearGradient
       inkscape:collect="always"
       xlink:href="#linearGradient1303"
       id="linearGradient1319"
       x1="76.717827"
       y1="188.6095"
       x2="99.782837"
       y2="188.6095"
       gradientUnits="userSpaceOnUse" />
    <linearGradient
       id="linearGradient1303"
       inkscape:collect="always">
      <stop
         id="stop1299"
         offset="0"
         style="stop-color:#7e8009;stop-opacity:1" />
      <stop
         id="stop1301"
         offset="1"
         style="stop-color:#2d4e05;stop-opacity:1" />
    </linearGradient>
    <inkscape:path-effect
       effect="bspline"
       id="path-effect1311"
       is_visible="true"
       weight="33.333333"
       steps="2"
       helper_size="0"
       apply_no_weight="true"
       apply_with_weight="true"
       only_selected="false" />
    <linearGradient
       inkscape:collect="always"
       xlink:href="#linearGradient1303"
       id="linearGradient1297"
       x1="97.455009"
       y1="191.34212"
       x2="102.76285"
       y2="191.34212"
       gradientUnits="userSpaceOnUse" />
    <inkscape:path-effect
       effect="bspline"
       id="path-effect1289"
       is_visible="true"
       weight="33.333333"
       steps="2"
       helper_size="0"
       apply_no_weight="true"
       apply_with_weight="true"
       only_selected="false" />
  </defs>
  <sodipodi:namedview
     id="base"
     pagecolor="#ffffff"
     bordercolor="#666666"
     borderopacity="1.0"
     inkscape:pageopacity="0.0"
     inkscape:pageshadow="2"
     inkscape:zoom="0.38621565"
     inkscape:cx="433.83254"
     inkscape:cy="485.356"
     inkscape:document-units="mm"
     inkscape:current-layer="layer1"
     showgrid="false"
     inkscape:window-width="1280"
     inkscape:window-height="961"
     inkscape:window-x="-8"
     inkscape:window-y="-8"
     inkscape:window-maximized="1" />
  <metadata
     id="metadata2824">
    <rdf:RDF>
      <cc:Work
         rdf:about="">
        <dc:format>image/svg+xml</dc:format>
        <dc:type
           rdf:resource="http://purl.org/dc/dcmitype/StillImage" />
        <dc:title></dc:title>
      </cc:Work>
    </rdf:RDF>
  </metadata>
  <g
     inkscape:label="Layer 1"
     inkscape:groupmode="layer"
     id="layer1">
    <path
       style="display:inline;fill:url(#linearGradient1297);fill-opacity:1;stroke:none;stroke-width:0.26458332px;stroke-linecap:butt;stroke-linejoin:miter;stroke-opacity:1"
       d="m 100.68015,202.00072 c -0.32865,-0.73502 -0.853764,-2.16551 -1.297374,-3.605 -0.443611,-1.43949 -0.805796,-2.88823 -1.104548,-4.40012 -0.298752,-1.5119 -0.534179,-3.08745 -0.669969,-4.65365 -0.135789,-1.5662 -0.17201,-3.12366 -0.144845,-4.67173 0.02716,-1.54807 0.117716,-3.08746 0.208399,-3.88415 0.09068,-0.79668 0.181224,-0.851 0.343739,-0.86001 0.162514,-0.009 0.39873,0.0273 0.534385,0.12674 0.135656,0.0994 0.171902,0.26251 0.144719,0.98754 -0.02718,0.72503 -0.117611,2.00911 -0.135393,3.42199 -0.01778,1.41287 0.03586,2.91483 0.298441,4.75295 0.262581,1.83812 0.733298,3.99255 1.222216,5.78528 0.48892,1.79272 0.99588,3.22307 1.43048,4.24622 0.4346,1.02314 0.79671,1.63873 1.00096,1.98518 0.20426,0.34646 0.26655,0.45028 0.24854,0.54982 -0.018,0.0995 -0.10846,0.20808 -0.31438,0.34354 -0.20593,0.13546 -0.52564,0.29677 -0.74038,0.41605 -0.21475,0.11928 -0.32348,0.19603 -0.44412,0.21484 -0.12063,0.0188 -0.25222,-0.0205 -0.58087,-0.75549 z"
       id="path1287"
       inkscape:connector-curvature="0"
       inkscape:path-effect="#path-effect1289"
       inkscape:original-d="m 100.87667,202.69633 c -0.52485,-1.43075 -1.049964,-2.86124 -1.575347,-4.29147 -0.361847,-1.44871 -0.724033,-2.89745 -1.086448,-4.34579 -0.235101,-1.57541 -0.470527,-3.15096 -0.706189,-4.72604 -0.03595,-1.55729 -0.07217,-3.11475 -0.108646,-4.67173 0.09079,-1.53914 0.18134,-3.07853 0.271611,-4.6174 0.09079,-0.0546 0.18134,-0.10891 0.271613,-0.16297 0.234852,0.0358 0.471059,0.0722 0.706191,0.10865 0.03645,0.16255 0.07269,0.32566 0.108644,0.4889 -0.09038,1.28691 -0.180809,2.57099 -0.271611,3.85688 0.07271,1.53921 0.108908,3.04179 0.162967,4.56309 0.471136,2.15488 0.941854,4.30931 1.412385,6.46436 0.50732,1.43036 1.01428,2.86071 1.52102,4.29147 0.36246,0.61545 0.72457,1.23104 1.08645,1.84696 0.0546,0.0722 0.10891,0.18081 0.16297,0.27161 -0.0904,0.10847 -0.18081,0.21703 -0.27161,0.32594 -0.32113,0.16189 -0.64084,0.32319 -0.96165,0.48518 -0.10868,0.0766 -0.2174,0.15338 -0.3265,0.23047 -0.13205,-0.0397 -0.26363,-0.079 -0.39585,-0.11811 z"
       transform="matrix(2.935071,0,0,2.935071,-215.08419,-463.37378)" />
    <path
       style="display:inline;fill:url(#linearGradient1319);fill-opacity:1;stroke:none;stroke-width:0.26458332px;stroke-linecap:butt;stroke-linejoin:miter;stroke-opacity:1"
       d="m 98.831473,166.71699 c -0.682156,0.19993 -1.972591,0.55611 -3.386137,1.18238 -1.413546,0.62627 -2.949582,1.52229 -4.191671,2.3674 -1.24209,0.84511 -2.189388,1.63879 -3.380362,2.57365 -1.190973,0.93485 -2.624581,2.01006 -3.956348,3.3546 -1.331768,1.34454 -2.560689,2.9575 -3.559509,4.66057 -0.998819,1.70308 -1.766913,3.4953 -2.340389,5.2246 -0.573476,1.72931 -0.96306,3.44349 -1.155154,5.13378 -0.192094,1.69029 -0.192094,3.38009 -2.9e-5,5.00635 0.192065,1.62626 0.576122,3.18809 0.857828,4.68621 0.281707,1.49813 0.46094,2.932 0.601793,4.11002 0.140852,1.17803 0.243268,2.09977 0.217683,2.9577 -0.02559,0.85792 -0.179193,1.65156 -0.243249,2.1766 -0.06406,0.52505 -0.03846,0.78103 0.102649,0.79372 0.141108,0.0127 0.396952,-0.21757 0.985435,-0.72929 0.588483,-0.51172 1.511363,-1.30642 2.356315,-1.97213 0.844953,-0.6657 1.613425,-1.20363 2.624684,-1.93328 1.011258,-0.72964 2.266531,-1.65188 3.476378,-2.64466 1.209847,-0.99277 2.400836,-2.0802 3.430586,-3.36997 1.02975,-1.28978 1.889449,-2.75633 2.45273,-4.19021 0.56328,-1.43389 0.819413,-2.817 1.075455,-4.45569 0.256043,-1.63869 0.512176,-3.53408 0.729838,-4.94245 0.217662,-1.40836 0.396946,-2.33039 0.512152,-3.18811 0.115206,-0.85772 0.166439,-1.65182 0.294473,-2.44554 0.128035,-0.79372 0.332969,-1.58784 0.627461,-2.21513 0.294493,-0.62728 0.67876,-1.0884 0.985939,-1.56201 0.307179,-0.47361 0.537791,-0.96046 0.819342,-1.74115 0.28155,-0.78068 0.614672,-1.85692 0.688112,-3.26756 0.07344,-1.41064 -0.112641,-3.15818 -0.07333,-4.15798 0.03931,-0.9998 0.301419,-1.24948 0.383782,-1.40701 0.08236,-0.15754 -0.01484,-0.22339 -0.09853,-0.23566 -0.08369,-0.0123 -0.155764,0.0303 -0.83792,0.23025 z"
       id="path1309"
       inkscape:connector-curvature="0"
       inkscape:path-effect="#path-effect1311"
       inkscape:original-d="m 99.439689,166.56076 c -1.290657,0.35513 -2.581092,0.71131 -3.871309,1.06854 -1.536639,0.89626 -3.072675,1.79228 -4.609407,2.68882 -0.947417,0.79374 -1.894715,1.58742 -2.842469,2.38152 -1.434206,1.07559 -2.867811,2.1508 -4.302114,3.22659 -1.229164,1.61336 -2.458085,3.22632 -3.687525,4.83988 -0.768111,1.79261 -1.536205,3.58483 -2.304703,5.37764 -0.383921,1.66454 -0.767972,3.37997 -1.152353,5.07035 2.65e-4,1.69016 2.65e-4,3.37996 0,5.07035 0.384442,1.56205 0.768501,3.12388 1.152353,4.68623 0.179541,1.43394 0.358772,2.86781 0.537763,4.30211 0.102714,0.92176 0.205129,1.8435 0.307295,2.76564 -0.153421,0.79378 -0.30703,1.58742 -0.460941,2.38153 0.02588,0.25591 0.05148,0.51189 0.07682,0.76823 0.256577,-0.23094 0.512419,-0.4612 0.768234,-0.69141 0.921147,-0.79324 1.844027,-1.58794 2.765644,-2.38152 0.768263,-0.53787 1.536735,-1.0758 2.304704,-1.61329 1.254553,-0.92179 2.509829,-1.84403 3.764349,-2.76565 1.177946,-1.04993 2.356183,-2.15132 3.53388,-3.22658 0.870726,-1.51078 1.741596,-2.97078 2.611996,-4.45577 0.256289,-1.38279 0.512421,-2.7659 0.768236,-4.14846 0.256286,-1.89483 0.512421,-3.79022 0.768234,-5.68494 0.179491,-0.922 0.358775,-1.84403 0.537763,-2.76564 0.05146,-0.79385 0.102698,-1.58795 0.153649,-2.38153 0.205054,-0.79383 0.409987,-1.58795 0.614587,-2.38153 0.384231,-0.46102 0.768498,-0.92214 1.15235,-1.38282 0.230593,-0.48651 0.461206,-0.97336 0.691412,-1.45965 0.332949,-1.07508 0.666068,-2.15132 0.998704,-3.22658 -0.184249,-1.74625 -0.370328,-3.49379 -0.558075,-5.24107 0.26465,-0.25218 0.526763,-0.50186 0.788547,-0.75116 -0.09582,-0.0675 -0.193036,-0.13334 -0.291554,-0.19751 -0.07035,0.0409 -0.142418,0.0835 -0.21607,0.12768 z"
       transform="matrix(1.3866399,0,0,1.3866399,-65.992447,-143.44106)"
       sodipodi:nodetypes="cccccccccccccccccccccccccccccccc" />
    <path
       style="display:inline;fill:url(#linearGradient1355);fill-opacity:1;stroke:none;stroke-width:0.26458332px;stroke-linecap:butt;stroke-linejoin:miter;stroke-opacity:1"
       d="m 144.84831,177.802 c -0.43238,-0.59411 -0.35802,-0.68658 -0.24031,-0.82238 0.1177,-0.1358 0.27876,-0.31496 0.62057,-0.0197 0.3418,0.29532 0.86466,1.06489 1.71475,2.02024 0.8501,0.95535 2.02678,2.09582 3.37855,3.16907 1.35177,1.07325 2.90354,2.09559 4.60301,3.19753 1.69948,1.10195 3.55901,2.29163 4.66121,2.95915 1.10219,0.66752 1.44625,0.81238 1.61821,0.92999 0.17196,0.1176 0.17196,0.20801 0.0904,0.31687 -0.0816,0.10886 -0.24405,0.23521 -0.44347,0.35307 -0.19942,0.11785 -0.43432,0.22627 -0.57933,0.30781 -0.14501,0.0816 -0.19901,0.13555 -0.56034,-0.12563 -0.36134,-0.26118 -1.02289,-0.83263 -2.07054,-1.5634 -1.04765,-0.73078 -2.47807,-1.618 -3.75469,-2.46002 -1.27661,-0.84202 -2.39922,-1.63872 -3.49476,-2.54413 -1.09555,-0.90541 -2.16385,-1.91938 -3.1677,-2.97416 -1.00385,-1.05477 -1.94316,-2.15025 -2.37553,-2.74436 z"
       id="path1345"
       inkscape:connector-curvature="0"
       inkscape:path-effect="#path-effect1347"
       inkscape:original-d="m 144.34137,177.30062 c 0.0746,-0.0927 0.14896,-0.18517 0.22303,-0.27736 0.16132,-0.17942 0.32238,-0.35858 0.48316,-0.53748 0.52312,0.7693 1.04597,1.53887 1.56856,2.3087 1.17756,1.14081 2.35424,2.28128 3.53096,3.42231 1.52128,1.01375 3.07853,2.02777 4.6174,3.04206 1.85995,1.1898 3.71948,2.37948 5.57965,3.56972 0.3442,0.1448 0.68826,0.28966 1.03213,0.43458 9e-5,0.0904 9e-5,0.18081 0,0.27161 -0.16319,0.1269 -0.32565,0.25326 -0.48891,0.38026 -0.23559,0.10868 -0.47049,0.2171 -0.70619,0.32593 -0.0543,0.0543 -0.1083,0.10829 -0.16297,0.16297 -0.66792,-0.57712 -1.32947,-1.14858 -1.99437,-1.72276 -1.43029,-0.88758 -2.86071,-1.7748 -4.29146,-2.6618 -1.12246,-0.79703 -2.24507,-1.59372 -3.36799,-2.39019 -1.06813,-1.01432 -2.13642,-2.0283 -3.20502,-3.04205 -0.93907,-1.09578 -1.87838,-2.19126 -2.81798,-3.2865 z"
       sodipodi:nodetypes="ccccccccccccccccc"
       transform="matrix(2.935071,0,0,2.935071,-351.16276,-452.55065)" />
    <path
       transform="matrix(2.5962236,-0.5724591,0.5724591,2.5962236,-265.49778,-354.8272)"
       sodipodi:nodetypes="ccccccccccccccccccccccccccc"
       inkscape:original-d="m 111.41426,196.72249 c 0.68337,0.0843 1.36648,0.16891 2.04933,0.25377 0.77005,0.40932 1.53984,0.81892 2.30936,1.22877 0.97325,0.74227 1.94646,1.48499 2.91929,2.22788 0.76847,1.04961 1.53673,2.09958 2.3047,3.14976 0.56366,1.12653 1.12701,2.25323 1.69012,3.38023 0.30759,1.02415 0.61485,2.09958 0.92188,3.14977 -0.0253,1.48523 -0.051,2.97024 -0.0768,4.45576 -0.61444,1.7926 -1.22891,3.58483 -1.84376,5.37764 -1.07546,1.33158 -2.1508,2.66295 -3.22659,3.99482 -1.30602,0.94743 -2.66295,1.89471 -3.99482,2.84247 -1.45971,0.48639 -2.91903,0.97283 -4.37894,1.45964 -1.2804,0.0766 -2.56051,0.15338 -3.84117,0.23047 -1.63899,-0.41008 -3.27754,-0.81971 -4.9167,-1.22917 -1.331495,-0.74298 -2.66295,-1.48552 -3.99482,-2.22788 -1.126556,-1.17831 -2.253223,-2.35619 -3.380232,-3.53388 -0.947221,-1.30626 -1.894715,-2.66348 -2.842469,-3.99482 -0.307017,-1.48546 -0.614322,-2.97077 -0.921882,-4.45576 2.64e-4,-1.30609 2.64e-4,-2.61226 0,-3.918 0.435509,-1.306 0.870931,-2.61226 1.305999,-3.91799 1.075531,-0.92193 2.151322,-1.84403 3.226586,-2.76565 1.30592,-0.46108 2.612263,-0.92215 3.917995,-1.38282 0.896321,-0.12827 1.792813,-0.25634 2.688823,-0.38412 0.66585,-0.15386 1.33187,-0.30756 1.99741,-0.46094 0.87052,-0.53778 1.74159,-1.07579 2.612,-1.61329 0.94741,-0.53784 1.89524,-1.07579 2.84247,-1.61329 0.87767,-0.0847 1.75508,-0.16918 2.63222,-0.25337 z"
       inkscape:path-effect="#path-effect1341"
       inkscape:connector-curvature="0"
       id="path1339"
       d="m 111.31737,196.80701 c 0.78022,1e-4 1.46333,0.0847 2.18972,0.33179 0.72638,0.2471 1.49617,0.65669 2.36753,1.23275 0.87135,0.57605 1.84456,1.31877 2.71518,2.21498 0.87061,0.89621 1.63887,1.94618 2.30468,3.0345 0.66581,1.08833 1.22916,2.21503 1.66105,3.29158 0.4319,1.07655 0.74607,2.14996 0.88694,3.41762 0.14087,1.26766 0.11527,2.75268 -0.20482,4.39171 -0.3201,1.63904 -0.93457,3.43127 -1.77967,4.99348 -0.84509,1.56221 -1.92043,2.89358 -3.11561,4.02722 -1.19517,1.13363 -2.54349,2.09301 -3.93927,2.81014 -1.39579,0.71713 -2.85511,1.20357 -4.22528,1.48531 -1.37018,0.28173 -2.65029,0.35854 -4.11016,0.19208 -1.45987,-0.16647 -3.09842,-0.5761 -4.58379,-1.15232 -1.485382,-0.57621 -2.816836,-1.31875 -4.046097,-2.27912 -1.229262,-0.96036 -2.355929,-2.13824 -3.38701,-3.38454 -1.031081,-1.2463 -1.990671,-2.59492 -2.61806,-4.00339 -0.627388,-1.40848 -0.934693,-2.89379 -1.08832,-4.28936 -0.153626,-1.39557 -0.153626,-2.70174 0.06405,-4.00764 0.217676,-1.30589 0.653097,-2.61215 1.408486,-3.72594 0.75539,-1.11379 1.831177,-2.0359 3.021786,-2.72718 1.19061,-0.69129 2.496955,-1.15235 3.59797,-1.44679 1.101014,-0.29444 1.997505,-0.42251 2.778445,-0.56334 0.78093,-0.14084 1.44696,-0.29453 2.21499,-0.64017 0.76803,-0.34564 1.6391,-0.88365 2.54801,-1.42132 0.90891,-0.53766 1.85674,-1.07561 2.76918,-1.38665 0.91243,-0.31103 1.78984,-0.39549 2.57007,-0.3954 z"
       style="display:inline;fill:url(#radialGradient1343);fill-opacity:1;stroke:none;stroke-width:0.26458332px;stroke-linecap:butt;stroke-linejoin:miter;stroke-opacity:1" />
    <path
       style="display:inline;fill:url(#radialGradient1285);fill-opacity:1;stroke:none;stroke-width:0.26458332px;stroke-linecap:butt;stroke-linejoin:miter;stroke-opacity:1"
       d="m 111.31737,196.80701 c 0.78022,1e-4 1.46333,0.0847 2.18972,0.33179 0.72638,0.2471 1.49617,0.65669 2.36753,1.23275 0.87135,0.57605 1.84456,1.31877 2.71518,2.21498 0.87061,0.89621 1.63887,1.94618 2.30468,3.0345 0.66581,1.08833 1.22916,2.21503 1.66105,3.29158 0.4319,1.07655 0.74607,2.14996 0.88694,3.41762 0.14087,1.26766 0.11527,2.75268 -0.20482,4.39171 -0.3201,1.63904 -0.93457,3.43127 -1.77967,4.99348 -0.84509,1.56221 -1.92043,2.89358 -3.11561,4.02722 -1.19517,1.13363 -2.54349,2.09301 -3.93927,2.81014 -1.39579,0.71713 -2.85511,1.20357 -4.22528,1.48531 -1.37018,0.28173 -2.65029,0.35854 -4.11016,0.19208 -1.45987,-0.16647 -3.09842,-0.5761 -4.58379,-1.15232 -1.485382,-0.57621 -2.816836,-1.31875 -4.046097,-2.27912 -1.229262,-0.96036 -2.355929,-2.13824 -3.38701,-3.38454 -1.031081,-1.2463 -1.990671,-2.59492 -2.61806,-4.00339 -0.627388,-1.40848 -0.934693,-2.89379 -1.08832,-4.28936 -0.153626,-1.39557 -0.153626,-2.70174 0.06405,-4.00764 0.217676,-1.30589 0.653097,-2.61215 1.408486,-3.72594 0.75539,-1.11379 1.831177,-2.0359 3.021786,-2.72718 1.19061,-0.69129 2.496955,-1.15235 3.59797,-1.44679 1.101014,-0.29444 1.997505,-0.42251 2.778445,-0.56334 0.78093,-0.14084 1.44696,-0.29453 2.21499,-0.64017 0.76803,-0.34564 1.6391,-0.88365 2.54801,-1.42132 0.90891,-0.53766 1.85674,-1.07561 2.76918,-1.38665 0.91243,-0.31103 1.78984,-0.39549 2.57007,-0.3954 z"
       id="path1257"
       inkscape:connector-curvature="0"
       inkscape:path-effect="#path-effect1259"
       inkscape:original-d="m 111.41426,196.72249 c 0.68337,0.0843 1.36648,0.16891 2.04933,0.25377 0.77005,0.40932 1.53984,0.81892 2.30936,1.22877 0.97325,0.74227 1.94646,1.48499 2.91929,2.22788 0.76847,1.04961 1.53673,2.09958 2.3047,3.14976 0.56366,1.12653 1.12701,2.25323 1.69012,3.38023 0.30759,1.02415 0.61485,2.09958 0.92188,3.14977 -0.0253,1.48523 -0.051,2.97024 -0.0768,4.45576 -0.61444,1.7926 -1.22891,3.58483 -1.84376,5.37764 -1.07546,1.33158 -2.1508,2.66295 -3.22659,3.99482 -1.30602,0.94743 -2.66295,1.89471 -3.99482,2.84247 -1.45971,0.48639 -2.91903,0.97283 -4.37894,1.45964 -1.2804,0.0766 -2.56051,0.15338 -3.84117,0.23047 -1.63899,-0.41008 -3.27754,-0.81971 -4.9167,-1.22917 -1.331495,-0.74298 -2.66295,-1.48552 -3.99482,-2.22788 -1.126556,-1.17831 -2.253223,-2.35619 -3.380232,-3.53388 -0.947221,-1.30626 -1.894715,-2.66348 -2.842469,-3.99482 -0.307017,-1.48546 -0.614322,-2.97077 -0.921882,-4.45576 2.64e-4,-1.30609 2.64e-4,-2.61226 0,-3.918 0.435509,-1.306 0.870931,-2.61226 1.305999,-3.91799 1.075531,-0.92193 2.151322,-1.84403 3.226586,-2.76565 1.30592,-0.46108 2.612263,-0.92215 3.917995,-1.38282 0.896321,-0.12827 1.792813,-0.25634 2.688823,-0.38412 0.66585,-0.15386 1.33187,-0.30756 1.99741,-0.46094 0.87052,-0.53778 1.74159,-1.07579 2.612,-1.61329 0.94741,-0.53784 1.89524,-1.07579 2.84247,-1.61329 0.87767,-0.0847 1.75508,-0.16918 2.63222,-0.25337 z"
       sodipodi:nodetypes="ccccccccccccccccccccccccccc"
       transform="matrix(2.935071,0,0,2.935071,-220.10303,-457.65271)" />
    <path
       style="display:inline;fill:url(#linearGradient1331);fill-opacity:1;stroke:none;stroke-width:0.26458332px;stroke-linecap:butt;stroke-linejoin:miter;stroke-opacity:1"
       d="m 143.75908,184.51905 c -0.32701,0.40928 -0.98124,1.22811 -1.79509,2.3676 -0.81385,1.1395 -1.78659,2.59861 -2.60612,3.89832 -0.81953,1.29972 -1.4852,2.43903 -1.92562,3.57138 -0.44042,1.13235 -0.66084,2.2863 -0.90413,3.33634 -0.24329,1.05005 -0.5121,2.01008 -0.81944,3.00896 -0.30734,0.99887 -0.65294,2.03565 -0.85782,2.66308 -0.20488,0.62743 -0.26888,0.84502 -0.29961,0.95995 -0.0307,0.11493 -0.0281,0.12691 -0.0266,0.13649 0.002,0.01 0.002,0.0159 0.003,0.0178 0.002,0.002 0.004,-7.5e-4 0.009,-0.0155 0.005,-0.0147 0.014,-0.0478 0.0641,-0.20921 0.0501,-0.16145 0.14393,-0.4606 0.22539,-0.7146 0.0814,-0.254 0.1517,-0.46643 0.29474,-0.88161 0.14304,-0.41517 0.36058,-1.03803 0.56972,-1.69221 0.20913,-0.65418 0.41089,-1.34274 0.60695,-2.05179 0.19607,-0.70904 0.38651,-1.43881 0.59251,-2.19419 0.206,-0.75539 0.4294,-1.54292 0.7125,-2.27549 0.2831,-0.73258 0.62445,-1.40889 1.15886,-2.32409 0.53441,-0.91521 1.26137,-2.06809 1.90309,-3.08269 0.64173,-1.01459 1.19885,-1.89189 1.7595,-2.66587 0.56065,-0.77398 1.12535,-1.44537 1.40267,-1.80535 0.27733,-0.35998 0.2679,-0.40803 0.26358,-0.43235 -0.004,-0.0243 -0.004,-0.0243 -0.33132,0.38496 z"
       id="path1321"
       inkscape:connector-curvature="0"
       inkscape:path-effect="#path-effect1323"
       inkscape:original-d="m 144.08608,184.10977 c -0.65392,0.81863 -1.30815,1.63746 -1.96269,2.45651 -0.97318,1.45991 -1.94592,2.91902 -2.91929,4.37893 -0.66568,1.13953 -1.33134,2.27884 -1.99741,3.41865 -0.20465,1.12679 -0.43507,2.27883 -0.653,3.41864 -0.26868,0.96029 -0.5375,1.92032 -0.80664,2.88088 -0.34556,1.03719 -0.69115,2.07397 -1.03712,3.11135 -0.0638,0.21747 -0.12777,0.43507 -0.19206,0.653 0.003,0.0118 0.006,0.0237 0.008,0.036 7.9e-4,0.007 0.001,0.0133 0.001,0.0204 0.003,-0.003 0.005,-0.006 0.007,-0.008 0.008,-0.0272 0.0171,-0.0603 0.0252,-0.09 0.0921,-0.2932 0.18591,-0.59235 0.27847,-0.88812 0.0703,-0.21224 0.14059,-0.42466 0.2105,-0.63659 0.21666,-0.61825 0.43371,-1.24128 0.65018,-1.86152 0.20182,-0.68812 0.40359,-1.37668 0.60498,-2.06463 0.19224,-0.72975 0.38118,-1.45991 0.57138,-2.18947 0.22264,-0.78097 0.4452,-1.56874 0.6674,-2.35272 0.34903,-0.67859 0.68528,-1.35747 1.02751,-2.03582 0.72655,-1.15207 1.45351,-2.30496 2.17987,-3.45705 0.55708,-0.8771 1.1142,-1.7544 1.67091,-2.6312 0.5646,-0.67114 1.1293,-1.34253 1.6935,-2.01347 -0.009,-0.0492 -0.0182,-0.0973 -0.0285,-0.14535 9.9e-4,-8.6e-4 0.001,-10e-4 8.1e-4,-4.2e-4 z"
       transform="matrix(2.935071,0,0,2.935071,-351.16276,-452.55065)"
       sodipodi:nodetypes="cccccccccccccccccccccccc" />
  </g>
</svg>
